<svg preserveAspectRatio="none" overflow="visible" style="display: block;" width="16.6667" height="16.6667" viewBox="0 0 16.6667 16.6667" fill="none" xmlns="http://www.w3.org/2000/svg">
<g id="Container">
<path id="Icon" d="M3.20833 12.5833C3.91667 12.0417 4.70833 11.6146 5.58333 11.3021C6.45833 10.9896 7.375 10.8333 8.33333 10.8333C9.29167 10.8333 10.2083 10.9896 11.0833 11.3021C11.9583 11.6146 12.75 12.0417 13.4583 12.5833C13.9444 12.0139 14.3229 11.3681 14.5938 10.6458C14.8646 9.92361 15 9.15278 15 8.33333C15 6.48611 14.3507 4.91319 13.0521 3.61458C11.7535 2.31597 10.1806 1.66667 8.33333 1.66667C6.48611 1.66667 4.91319 2.31597 3.61458 3.61458C2.31597 4.91319 1.66667 6.48611 1.66667 8.33333C1.66667 9.15278 1.80208 9.92361 2.07292 10.6458C2.34375 11.3681 2.72222 12.0139 3.20833 12.5833V12.5833M8.33333 9.16667C7.51389 9.16667 6.82292 8.88542 6.26042 8.32292C5.69792 7.76042 5.41667 7.06944 5.41667 6.25C5.41667 5.43056 5.69792 4.73958 6.26042 4.17708C6.82292 3.61458 7.51389 3.33333 8.33333 3.33333C9.15278 3.33333 9.84375 3.61458 10.4062 4.17708C10.9688 4.73958 11.25 5.43056 11.25 6.25C11.25 7.06944 10.9688 7.76042 10.4062 8.32292C9.84375 8.88542 9.15278 9.16667 8.33333 9.16667V9.16667M8.33333 16.6667C7.18056 16.6667 6.09722 16.4479 5.08333 16.0104C4.06944 15.5729 3.1875 14.9792 2.4375 14.2292C1.6875 13.4792 1.09375 12.5972 0.65625 11.5833C0.21875 10.5694 0 9.48611 0 8.33333C0 7.18056 0.21875 6.09722 0.65625 5.08333C1.09375 4.06944 1.6875 3.1875 2.4375 2.4375C3.1875 1.6875 4.06944 1.09375 5.08333 0.65625C6.09722 0.21875 7.18056 0 8.33333 0C9.48611 0 10.5694 0.21875 11.5833 0.65625C12.5972 1.09375 13.4792 1.6875 14.2292 2.4375C14.9792 3.1875 15.5729 4.06944 16.0104 5.08333C16.4479 6.09722 16.6667 7.18056 16.6667 8.33333C16.6667 9.48611 16.4479 10.5694 16.0104 11.5833C15.5729 12.5972 14.9792 13.4792 14.2292 14.2292C13.4792 14.9792 12.5972 15.5729 11.5833 16.0104C10.5694 16.4479 9.48611 16.6667 8.33333 16.6667V16.6667M8.33333 15C9.06944 15 9.76389 14.8924 10.4167 14.6771C11.0694 14.4618 11.6667 14.1528 12.2083 13.75C11.6667 13.3472 11.0694 13.0382 10.4167 12.8229C9.76389 12.6076 9.06944 12.5 8.33333 12.5C7.59722 12.5 6.90278 12.6076 6.25 12.8229C5.59722 13.0382 5 13.3472 4.45833 13.75C5 14.1528 5.59722 14.4618 6.25 14.6771C6.90278 14.8924 7.59722 15 8.33333 15V15M8.33333 7.5C8.69444 7.5 8.99306 7.38194 9.22917 7.14583C9.46528 6.90972 9.58333 6.61111 9.58333 6.25C9.58333 5.88889 9.46528 5.59028 9.22917 5.35417C8.99306 5.11806 8.69444 5 8.33333 5C7.97222 5 7.67361 5.11806 7.4375 5.35417C7.20139 5.59028 7.08333 5.88889 7.08333 6.25C7.08333 6.61111 7.20139 6.90972 7.4375 7.14583C7.67361 7.38194 7.97222 7.5 8.33333 7.5V7.5M8.33333 6.25V6.25V6.25V6.25V6.25V6.25V6.25V6.25V6.25V6.25M8.33333 13.75V13.75V13.75V13.75V13.75V13.75V13.75V13.75V13.75V13.75" fill="#CBD5E1"/>
</g>
</svg>
