<svg preserveAspectRatio="none" overflow="visible" style="display: block;" width="15" height="15" viewBox="0 0 15 15" fill="none" xmlns="http://www.w3.org/2000/svg">
<g id="Container">
<path id="Icon" d="M4.5 10.5H13.5V10.5V10.5V1.5V1.5V1.5H12V6.75L10.125 5.625L8.25 6.75V1.5H4.5V1.5V1.5V10.5V10.5V10.5V10.5M4.5 12C4.0875 12 3.73437 11.8531 3.44062 11.5594C3.14687 11.2656 3 10.9125 3 10.5V1.5C3 1.0875 3.14687 0.734375 3.44062 0.440625C3.73437 0.146875 4.0875 0 4.5 0H13.5C13.9125 0 14.2656 0.146875 14.5594 0.440625C14.8531 0.734375 15 1.0875 15 1.5V10.5C15 10.9125 14.8531 11.2656 14.5594 11.5594C14.2656 11.8531 13.9125 12 13.5 12H4.5V12M1.5 15C1.0875 15 0.734375 14.8531 0.440625 14.5594C0.146875 14.2656 0 13.9125 0 13.5V3H1.5V13.5V13.5V13.5H12V15H1.5V15M8.25 1.5V1.5H10.125H12V1.5H8.25V1.5M4.5 1.5V1.5V1.5V1.5V1.5V1.5H8.25V1.5H10.125H12V1.5H13.5V1.5V1.5V1.5V1.5V1.5H4.5V1.5" fill="#545F73"/>
</g>
</svg>
